<?xml version="1.0" encoding="utf-8"?>
<!-- Leaf icon by Arthur Shlain from Usefulicons.com -->
<svg xmlns="http://www.w3.org/2000/svg" xmlns:xlink="http://www.w3.org/1999/xlink" xml:space="preserve" version="1.1" x="0px" y="0px" viewBox="0 0 100 100" width="400px" height="400px"><path d="M90,10C30,10,15,35,15,75C18.137,71.235,21.511,67.549,25.012,63.981C25.27,51.83,30,40,30,40L30,59.056C33.321,55.872,36.706,52.805,40.072,49.885C40.676,38.315,45,27.5,45,27.5L45,45.699C48.453,42.825,51.838,40.129,55.062,37.642C55.627,26.564,60,20,60,20L60,33.895C71.553,25.28,80,20,80,20S74.122,27.056,65,35C61.529,38.023,57.58,41.348,53.327,45L70,45C70,45,59.211,49.313,47.657,49.926C44.939,52.316,42.136,54.836,39.269,57.5L57.5,57.5C57.5,57.5,46.002,62.096,34.033,62.473C28.578,67.773,22.996,73.588,17.5,80L10,88.688C12.037,90.552,15.2,90.412,17.064,88.375L24.749,79.978C80.258,79.072,90,44.538,90,10Z" stroke="none"></path></svg>